<svg xmlns="http://www.w3.org/2000/svg" viewBox="250 100 700 870" version="1.1" width="700" height="870">
	<path d="M 274.461 119.063 C 273.594 120.466, 273.415 120.378, 281.500 122.481 C 293.649 125.640, 308.289 136.631, 317.412 149.441 C 322.799 157.006, 326.011 163.369, 329.338 173.073 C 335.123 189.945, 334.990 185.735, 335.013 353 C 335.026 446.683, 335.419 510.146, 336.020 515.857 C 338.749 541.762, 348.515 572.562, 360.323 592.500 C 373.983 615.566, 394.334 637.923, 415.051 652.624 C 426.162 660.509, 428.679 662.054, 443.500 670.093 C 473.217 686.213, 515.798 696.121, 556.500 696.388 L 573.500 696.500 574.366 681.242 C 574.980 670.411, 574.911 665.597, 574.127 664.654 C 573.520 663.922, 571.106 662.777, 568.762 662.109 C 539.966 653.899, 523.969 644.988, 507.316 627.880 C 499.047 619.385, 498.052 618.153, 491.271 608 C 477.477 587.347, 470.139 564.206, 466.531 529.985 C 465.231 517.653, 465.004 492.577, 465.002 361.289 C 465 205.929, 465.232 194.352, 468.631 180.500 C 473.253 161.663, 483.027 145.440, 496.568 134.126 C 504.065 127.863, 509.571 124.836, 517.799 122.453 C 521.813 121.290, 525.188 119.925, 525.299 119.420 C 525.600 118.044, 275.311 117.688, 274.461 119.063 M 661.028 118.962 C 659.732 119.781, 659.732 119.949, 661.028 120.368 C 661.838 120.629, 665.572 121.827, 669.326 123.029 C 673.080 124.230, 679.380 127.376, 683.326 130.019 C 704.367 144.111, 715.554 163.490, 719.086 191.962 C 720.503 203.389, 721.266 460.139, 720.009 502.500 C 718.657 548.035, 715.131 567.221, 703.410 592.832 C 691.992 617.780, 670.903 639.934, 647.165 651.917 C 639.272 655.901, 634.514 657.605, 623.069 660.544 C 617.882 661.877, 613.277 663.537, 612.835 664.233 C 611.495 666.343, 611.820 694.420, 613.200 695.800 C 615.821 698.421, 650.320 696.685, 677.310 692.575 C 702.633 688.718, 733.898 677.373, 757 663.656 C 766.125 658.238, 782.304 645.700, 791.252 637.111 C 818.087 611.355, 835.768 580.658, 844.911 543.953 C 851.710 516.656, 851.265 528.754, 851.966 352 C 852.550 204.396, 852.741 190.919, 854.338 184.270 C 859.478 162.872, 869.093 146.696, 883.849 134.623 C 887.630 131.530, 891.019 129, 891.381 129 C 891.743 129, 893.718 127.963, 895.770 126.695 C 897.821 125.427, 902.425 123.576, 906 122.581 C 909.575 121.585, 913.091 120.601, 913.813 120.393 C 914.536 120.184, 914.847 119.561, 914.504 119.007 C 913.686 117.683, 663.121 117.638, 661.028 118.962 M 273.200 743.200 C 271.343 745.057, 271.643 754.649, 273.582 755.393 C 274.452 755.727, 419.487 756, 595.882 756 C 843.996 756, 916.872 755.728, 917.800 754.800 C 919.356 753.244, 919.356 744.756, 917.800 743.200 C 916.052 741.452, 274.948 741.452, 273.200 743.200 M 416 806.450 C 405.234 808.036, 402.556 808.755, 397 811.550 C 391.238 814.448, 387.684 818.232, 384.834 824.500 C 381.736 831.312, 380.947 851.866, 383.452 860.484 C 386.777 871.920, 396.339 878.723, 413.866 882.124 C 422.327 883.766, 428.584 883.994, 465.257 883.997 C 518.249 884.001, 528.156 882.814, 535.065 875.637 C 536.376 874.274, 537.798 873.375, 538.224 873.639 C 538.651 873.902, 539 881.139, 539 889.721 C 539 912.380, 536.500 918.726, 526.219 922.168 C 520.821 923.975, 424.697 924.633, 417 922.915 C 406.220 920.510, 402.310 916.405, 401.279 906.411 C 400.891 902.656, 400.242 900.913, 399.113 900.599 C 397.763 900.224, 385.187 900.428, 382.750 900.866 C 381.600 901.072, 381.859 914.262, 383.088 918.101 C 386.684 929.331, 392.917 934.655, 407 938.525 C 412.715 940.095, 419.355 940.360, 462 940.718 C 521.936 941.221, 533.625 940.327, 543.653 934.475 C 549.429 931.105, 550.394 930.028, 553.491 923.500 C 557.494 915.062, 558.234 905.401, 557.786 867.365 C 557.392 833.815, 557.289 832.278, 555.067 826.619 C 553.797 823.385, 551.243 819.061, 549.391 817.011 C 545.331 812.517, 536.564 808.402, 527.885 806.916 C 518.169 805.252, 426.713 804.871, 416 806.450 M 671.566 806.150 C 657.448 807.393, 648.857 810.169, 643.315 815.277 C 635.372 822.599, 632.436 831.887, 633.253 847.107 C 634.472 869.818, 641.393 877.324, 665.865 882.472 C 676.719 884.755, 753.559 884.686, 768.210 882.380 C 778.430 880.772, 784.437 878.589, 786.939 875.573 C 787.657 874.708, 788.865 874, 789.622 874 C 790.684 874, 791.030 876.123, 791.130 883.250 C 791.408 903.073, 790.918 909.314, 788.735 913.752 C 786.174 918.959, 784.177 920.327, 776.122 922.390 C 770.761 923.764, 762.621 923.998, 720.669 923.989 C 656.610 923.975, 656.888 924.043, 652.967 907.500 L 651.308 900.500 643.559 900.206 C 633.433 899.822, 632.567 900.523, 633.335 908.475 C 635.054 926.270, 641.693 934.163, 658.763 938.707 C 664.842 940.325, 670.726 940.500, 719 940.500 C 766.211 940.500, 773.519 940.292, 781.168 938.733 C 799.037 935.091, 804.456 930.519, 808.114 916 C 809.176 911.784, 809.499 901.512, 809.495 872 C 809.490 830.006, 809.282 828.102, 803.798 819.927 C 795.103 806.965, 784.679 805.076, 722.500 805.196 C 699.950 805.239, 677.030 805.669, 671.566 806.150" fill="black" fill-rule="evenodd"/>
</svg>