<svg xmlns="http://www.w3.org/2000/svg" viewBox="250 100 700 870" version="1.1" width="700" height="870">
	<g fill="black">
		<!-- U outline (two halves, combined via evenodd to create the inner U-opening) -->
		<path d="M 274.461 119.063 C 273.594 120.466, 273.415 120.378, 281.500 122.481 C 293.649 125.640, 308.289 136.631, 317.412 149.441 C 322.799 157.006, 326.011 163.369, 329.338 173.073 C 335.123 189.945, 334.990 185.735, 335.013 353 C 335.026 446.683, 335.419 510.146, 336.020 515.857 C 338.749 541.762, 348.515 572.562, 360.323 592.500 C 373.983 615.566, 394.334 637.923, 415.051 652.624 C 426.162 660.509, 428.679 662.054, 443.500 670.093 C 473.217 686.213, 515.798 696.121, 556.500 696.388 L 573.500 696.500 574.366 681.242 C 574.980 670.411, 574.911 665.597, 574.127 664.654 C 573.520 663.922, 571.106 662.777, 568.762 662.109 C 539.966 653.899, 523.969 644.988, 507.316 627.880 C 499.047 619.385, 498.052 618.153, 491.271 608 C 477.477 587.347, 470.139 564.206, 466.531 529.985 C 465.231 517.653, 465.004 492.577, 465.002 361.289 C 465 205.929, 465.232 194.352, 468.631 180.500 C 473.253 161.663, 483.027 145.440, 496.568 134.126 C 504.065 127.863, 509.571 124.836, 517.799 122.453 C 521.813 121.290, 525.188 119.925, 525.299 119.420 C 525.600 118.044, 275.311 117.688, 274.461 119.063 Z" />
		<path d="M 661.028 118.962 C 659.732 119.781, 659.732 119.949, 661.028 120.368 C 661.838 120.629, 665.572 121.827, 669.326 123.029 C 673.080 124.230, 679.380 127.376, 683.326 130.019 C 704.367 144.111, 715.554 163.490, 719.086 191.962 C 720.503 203.389, 721.266 460.139, 720.009 502.500 C 718.657 548.035, 715.131 567.221, 703.410 592.832 C 691.992 617.780, 670.903 639.934, 647.165 651.917 C 639.272 655.901, 634.514 657.605, 623.069 660.544 C 617.882 661.877, 613.277 663.537, 612.835 664.233 C 611.495 666.343, 611.820 694.420, 613.200 695.800 C 615.821 698.421, 650.320 696.685, 677.310 692.575 C 702.633 688.718, 733.898 677.373, 757 663.656 C 766.125 658.238, 782.304 645.700, 791.252 637.111 C 818.087 611.355, 835.768 580.658, 844.911 543.953 C 851.710 516.656, 851.265 528.754, 851.966 352 C 852.550 204.396, 852.741 190.919, 854.338 184.270 C 859.478 162.872, 869.093 146.696, 883.849 134.623 C 887.630 131.530, 891.019 129, 891.381 129 C 891.743 129, 893.718 127.963, 895.770 126.695 C 897.821 125.427, 902.425 123.576, 906 122.581 C 909.575 121.585, 913.091 120.601, 913.813 120.393 C 914.536 120.184, 914.847 119.561, 914.504 119.007 C 913.686 117.683, 663.121 117.638, 661.028 118.962 Z" />
		<!-- Underscore separator -->
		<rect x="273.2" y="743.2" width="644.6" height="12.8" />
		<!-- First 9: bowl + small hook descender on bottom-right -->
		<rect x="400" y="810" width="155" height="65" rx="32" />
		<path d="M 525 860 Q 555 870 553 895 Q 548 920 528 918 Q 510 915 515 895 Q 520 880 535 875 Z" />
		<rect x="423" y="822" width="108" height="40" rx="20" fill="white" />
		<!-- Second 9: same shape shifted right by 255 units -->
		<rect x="655" y="810" width="155" height="65" rx="32" />
		<path d="M 780 860 Q 810 870 808 895 Q 803 920 783 918 Q 765 915 770 895 Q 775 880 790 875 Z" />
		<rect x="678" y="822" width="108" height="40" rx="20" fill="white" />
	</g>
</svg>
